<svg width="64" height="52" viewBox="0 0 64 52" fill="none" xmlns="http://www.w3.org/2000/svg">
<path d="M4.53505 50.6348H1.93797L2.32163 48.4698H4.41897L4.63539 47.2425H2.53805L2.88826 45.2714H5.37713L5.59355 44.0558H1.38117L0.0157399 51.7642L0 51.8503H4.32059L4.53505 50.6348ZM7.04162 45.2714L5.89064 51.7642L5.8749 51.8503H7.58465L8.7494 45.2714H10.1188L10.3332 44.0558H5.90245L5.68603 45.2714H7.04162ZM9.29242 51.8503H11.0022L11.5786 48.5912H13.1861L12.6234 51.7642L12.6076 51.8503H14.3154L15.6828 44.1439L15.6985 44.0558H13.9888L13.4005 47.3756H11.7951L12.3676 44.1439L12.3833 44.0558H10.6736L9.30816 51.7642L9.29242 51.8503ZM14.7955 51.8503H19.1161L19.3325 50.6348H16.7334L17.1171 48.4698H19.2144L19.4328 47.2425H17.3355L17.6837 45.2714H20.1746L20.389 44.0558H16.1786L14.8112 51.7642L14.7955 51.8503ZM22.4175 45.2714H23.478C23.6098 45.2714 23.6885 45.2871 23.716 45.3203C23.7396 45.3477 23.7416 45.4104 23.7239 45.5102L23.3855 47.4246C23.3481 47.6301 23.297 47.6908 23.0215 47.6908H21.9886L22.4175 45.2714ZM25.294 44.4375C25.0775 44.1811 24.6958 44.0558 24.1272 44.0558H20.9242L19.5587 51.7642L19.543 51.8503H21.2508L21.78 48.8692H22.1735L22.929 51.7955L22.9448 51.8503H24.7785L23.8892 48.8183C24.5502 48.6793 24.9437 48.2721 25.0618 47.6086L25.4632 45.3438C25.532 44.9562 25.475 44.6509 25.294 44.4375ZM31.2043 44.0558H29.7169C28.6898 44.0558 28.1173 44.4688 27.9678 45.3203L27.6353 47.1955C27.5605 47.6105 27.6136 47.9198 27.7986 48.1371C28.0032 48.3818 28.3613 48.4992 28.8905 48.4992H29.9864C30.1163 48.4992 30.193 48.5149 30.2186 48.5462C30.2422 48.5716 30.2441 48.6343 30.2264 48.7321L29.9372 50.3646C29.8998 50.5702 29.8526 50.625 29.5811 50.625H29.0676C28.9318 50.625 28.8512 50.6093 28.8236 50.5741C28.798 50.5467 28.7961 50.488 28.8118 50.394L28.981 49.4407H27.2634L27.0667 50.5604C26.9958 50.948 27.0549 51.2533 27.2359 51.4686C27.4523 51.7251 27.8359 51.8503 28.4065 51.8503H29.8644C30.8875 51.8503 31.4797 51.4256 31.6293 50.5878L31.9834 48.5912C32.0523 48.1899 31.9991 47.8904 31.8201 47.6771C31.6115 47.4304 31.2436 47.311 30.6947 47.311H29.6283C29.4926 47.311 29.4119 47.2934 29.3844 47.2601C29.3607 47.2327 29.3568 47.1721 29.3745 47.0781L29.646 45.5415C29.6814 45.3438 29.7365 45.2812 30.0159 45.2812H30.5294C30.6593 45.2812 30.736 45.2968 30.7616 45.3282C30.7852 45.3536 30.7872 45.4162 30.7695 45.5141L30.5983 46.4791H32.3297L32.5304 45.3477C32.5992 44.9582 32.5422 44.6528 32.3612 44.4356C32.1447 44.1811 31.767 44.0558 31.2043 44.0558ZM37.7776 44.0558H33.0754L32.8589 45.2812H34.3444L33.1954 51.7564L33.1796 51.8503H34.8972L36.062 45.2812H37.5612L37.7776 44.0558ZM40.9413 45.5141L40.6029 47.4246C40.5656 47.6301 40.5164 47.6849 40.2468 47.6849H39.2198L39.6467 45.2812H40.7013C40.8312 45.2812 40.9079 45.2968 40.9335 45.3262C40.9571 45.3536 40.9591 45.4162 40.9413 45.5141ZM42.2871 47.6105L42.6885 45.3477C42.7573 44.9602 42.7003 44.6528 42.5193 44.4395C42.3009 44.1811 41.9192 44.0558 41.3486 44.0558H38.1475L36.7821 51.7564L36.7644 51.8503H38.482L39.0093 48.875H39.3929L40.1465 51.7916L40.1622 51.8503H42.0077L41.1184 48.8202C41.7775 48.6812 42.1691 48.2741 42.2871 47.6105ZM45.38 44.0558H43.6624L42.2969 51.7564L42.2812 51.8503H43.9988L45.3643 44.1498L45.38 44.0558ZM51.0542 44.0558H49.1851L46.9127 47.6908L47.5403 44.1498L47.556 44.0558H45.8384L44.4749 51.7564L44.4592 51.8503H46.1749L46.83 48.1567L47.802 51.8503H49.6455L48.5634 47.9492L51.0542 44.0558ZM49.9996 51.7564L49.9839 51.8503H54.3065L54.5248 50.625H51.9317L52.3114 48.4757H54.4068L54.6252 47.2386H52.5318L52.8781 45.2812H55.363L55.5814 44.0558H51.3651L49.9996 51.7564ZM62.6446 0.951172L60.5453 12.8269H46.3972L47.1409 8.6204L22.0476 8.64193L21.178 13.561L7.91125 8.56755L9.24717 0.992278L62.6446 0.951172ZM2.56756 38.7101L4.66687 26.8343H18.817L18.0733 31.0408L43.1646 31.0193L44.0342 26.1003L57.0708 32.4052L55.967 38.669L2.56756 38.7101ZM54.8554 16.826L53.6414 17.654H24.7686L21.6797 16.4423H4.16123L2.20161 23.6476H19.2538L22.992 20.3689H53.0158L53.9346 21.1969H62.6014L63.5221 16.826H54.8554Z" fill="#FFD817"/>
</svg>
