<svg width="66" height="67" viewBox="0 0 66 67" fill="none" xmlns="http://www.w3.org/2000/svg">
<path d="M33 66.5C51.2254 66.5 66 51.7254 66 33.5C66 15.2746 51.2254 0.5 33 0.5C14.7746 0.5 0 15.2746 0 33.5C0 51.7254 14.7746 66.5 33 66.5Z" fill="#F18B00"/>
<path d="M33.1839 4.33769C49.2637 4.33769 62.346 17.42 62.346 33.4998C62.346 49.5796 49.2637 62.6619 33.1839 62.6619C17.1041 62.6619 4.02177 49.5796 4.02177 33.4998C4.02177 17.42 17.1041 4.33769 33.1839 4.33769ZM33.1839 2.93701C16.3057 2.93701 2.62109 16.6216 2.62109 33.4998C2.62109 50.378 16.3057 64.0626 33.1839 64.0626C50.0621 64.0626 63.7466 50.378 63.7466 33.4998C63.7466 16.6216 50.0621 2.93701 33.1839 2.93701Z" fill="white"/>
<path d="M45.004 43.8232H44.99C44.4438 43.8232 44.0095 44.2574 44.0095 44.7967V46.6035C44.0095 47.0377 43.6524 47.3949 43.2182 47.3949L24.232 47.3739C23.7137 47.3739 23.5316 46.9817 23.8678 46.5825L31.6976 37.1209L28.2098 37.0229L36.2988 28.7729L32.671 28.7869L42.3287 18.1137C42.4828 17.9457 42.3637 17.6655 42.1326 17.6655H24.4351C23.9168 17.6655 23.5036 18.0227 23.4195 18.4849H23.3846V18.646V25.5373C23.3846 26.0766 23.8538 26.5178 24.4351 26.5178H24.449C25.0303 26.5178 25.4995 26.0766 25.4995 25.5373V20.1377C25.4995 19.8646 25.7237 19.6405 25.9968 19.6405H36.9431C37.2443 19.6405 37.3984 19.9977 37.2023 20.2148L28.9452 29.3542L32.573 29.3402L24.7922 37.6812H30.0938C30.0938 37.6812 22.243 47.0518 21.7597 47.7801C21.2765 48.5085 21.5497 49.3489 22.4951 49.3489H45.011C45.5572 49.3489 45.9915 48.9147 45.9915 48.3754V44.7967C45.9915 44.2574 45.5502 43.8232 45.011 43.8232H45.004Z" fill="white"/>
<path d="M39.5706 26.4688L47.3233 17.7705C47.3233 17.7705 47.3233 17.7075 47.2953 17.7075L44.0948 17.7285C44.0948 17.7285 44.0737 17.7285 44.0667 17.7425L34.7663 28.0305C34.7663 28.0305 34.7662 28.0936 34.7942 28.0936L38.2469 28.0795C38.2469 28.0795 38.2959 28.1216 38.2749 28.1426L30.4941 36.0844C30.4941 36.0844 30.4872 36.1475 30.5152 36.1475L33.6597 36.4206C33.6597 36.4206 33.7017 36.4626 33.6877 36.4836L25.2767 46.2323C25.2486 46.2674 25.2906 46.3164 25.3326 46.2884L38.7652 35.118C38.7652 35.118 38.7792 35.0549 38.7442 35.0479L35.1444 34.9079C35.1444 34.9079 35.0954 34.8658 35.1165 34.8448L43.0443 26.7349C43.0443 26.7349 43.0512 26.6719 43.0162 26.6719L39.5986 26.5318C39.5986 26.5318 39.5496 26.4898 39.5706 26.4688Z" fill="white"/>
</svg>
