<svg width="38" height="38" viewBox="0 0 38 38" fill="none" xmlns="http://www.w3.org/2000/svg">
<g clip-path="url(#clip0_82_7346)">
<path fill-rule="evenodd" clip-rule="evenodd" d="M2.96097 8.23125C2.2038 8.2046 1.7722 9.08671 2.2579 9.66817L6.90771 15.2349C6.90771 15.2349 9.58873 11.8903 13.5 10C15.5746 8.99735 18.2459 8.78197 20.5458 8.78197C20.0186 5.91966 19.6122 3.5349 19.3544 1.97625C19.2297 1.22246 18.2647 0.970729 17.7896 1.56912L12.2414 8.55785L2.96097 8.23125Z" fill="url(#paint0_linear_82_7346)"/>
<path fill-rule="evenodd" clip-rule="evenodd" d="M9.69478 1.27066C9.1847 0.994464 8.55188 1.28139 8.4235 1.84706L5.71289 13.7909L6.90761 15.2349C6.90761 15.2349 9.7092 11.8713 13.5 10C15.6417 8.94273 18.0993 9.11231 20.5457 8.78195C20.4593 8.3194 20.2141 6.96662 20.2141 6.96662L9.69478 1.27066Z" fill="url(#paint1_linear_82_7346)"/>
<mask id="mask0_82_7346" style="mask-type:luminance" maskUnits="userSpaceOnUse" x="5" y="1" width="16" height="15">
<path fill-rule="evenodd" clip-rule="evenodd" d="M9.69478 1.27066C9.1847 0.994464 8.55188 1.28139 8.4235 1.84706L5.71289 13.7909L6.90761 15.2349C6.90761 15.2349 9.26201 11.861 13 10C15.166 8.92162 18.0596 9.11766 20.5457 8.78195C20.4593 8.3194 20.2141 6.96662 20.2141 6.96662L9.69478 1.27066Z" fill="white"/>
</mask>
<g mask="url(#mask0_82_7346)">
<path fill-rule="evenodd" clip-rule="evenodd" d="M20.8857 11.0323L23.2571 7.4656L8.375 0L14.3761 13.4781L20.8857 11.0323Z" fill="url(#paint2_linear_82_7346)"/>
</g>
<path d="M12.9357 8.61086L10.6121 4.05044L9.97005 4.37757L9.37252 5.31566L9.91007 5.66706L10.311 5.04663L12.2937 8.938L12.9357 8.61086Z" fill="#C57706" stroke="#C57706" stroke-width="0.5"/>
</g>
<circle cx="19.5" cy="23" r="14.25" stroke="#FFC835" stroke-width="1.5"/>
<defs>
<linearGradient id="paint0_linear_82_7346" x1="7.54447" y1="4.93828" x2="8.91752" y2="11.0807" gradientUnits="userSpaceOnUse">
<stop stop-color="#FDED7B"/>
<stop offset="1" stop-color="#FFB600"/>
</linearGradient>
<linearGradient id="paint1_linear_82_7346" x1="5.94097" y1="1.47416" x2="6.06117" y2="15.2963" gradientUnits="userSpaceOnUse">
<stop stop-color="#FFE471"/>
<stop offset="1" stop-color="#FFD464"/>
</linearGradient>
<linearGradient id="paint2_linear_82_7346" x1="8.375" y1="0" x2="8.375" y2="13.4781" gradientUnits="userSpaceOnUse">
<stop stop-color="#FFD742"/>
<stop offset="1" stop-color="#FFB928"/>
</linearGradient>
<clipPath id="clip0_82_7346">
<rect width="20" height="16" fill="white" transform="translate(1)"/>
</clipPath>
</defs>
</svg>
