<svg width="46" height="46" viewBox="0 0 46 46" fill="none" xmlns="http://www.w3.org/2000/svg">
<g clip-path="url(#clip0_82_7420)">
<path fill-rule="evenodd" clip-rule="evenodd" d="M4.46097 8.23125C3.7038 8.2046 3.2722 9.08671 3.7579 9.66817L8.40771 15.2349C8.40771 15.2349 11.0887 11.8903 15 10C17.0746 8.99735 19.7459 8.78197 22.0458 8.78197C21.5186 5.91966 21.1122 3.5349 20.8544 1.97625C20.7297 1.22246 19.7647 0.970729 19.2896 1.56912L13.7414 8.55785L4.46097 8.23125Z" fill="url(#paint0_linear_82_7420)"/>
<path fill-rule="evenodd" clip-rule="evenodd" d="M11.1948 1.27066C10.6847 0.994464 10.0519 1.28139 9.9235 1.84706L7.21289 13.7909L8.40761 15.2349C8.40761 15.2349 11.2092 11.8713 15 10C17.1417 8.94273 19.5993 9.11231 22.0457 8.78195C21.9593 8.3194 21.7141 6.96662 21.7141 6.96662L11.1948 1.27066Z" fill="url(#paint1_linear_82_7420)"/>
<mask id="mask0_82_7420" style="mask-type:luminance" maskUnits="userSpaceOnUse" x="7" y="1" width="16" height="15">
<path fill-rule="evenodd" clip-rule="evenodd" d="M11.1948 1.27066C10.6847 0.994464 10.0519 1.28139 9.9235 1.84706L7.21289 13.7909L8.40761 15.2349C8.40761 15.2349 10.762 11.861 14.5 10C16.666 8.92162 19.5596 9.11766 22.0457 8.78195C21.9593 8.3194 21.7141 6.96662 21.7141 6.96662L11.1948 1.27066Z" fill="white"/>
</mask>
<g mask="url(#mask0_82_7420)">
<path fill-rule="evenodd" clip-rule="evenodd" d="M22.3857 11.0323L24.7571 7.4656L9.875 0L15.8761 13.4781L22.3857 11.0323Z" fill="url(#paint2_linear_82_7420)"/>
</g>
<path d="M15.1442 8.2484L14.8542 7.67924L13.3918 8.42447C13.4139 8.1187 13.4445 7.84884 13.4837 7.6149C13.5228 7.38097 13.5538 7.1554 13.5765 6.9382C13.5892 6.85395 13.6012 6.76029 13.6126 6.65723C13.624 6.55416 13.6354 6.4511 13.6468 6.34804C13.6582 6.24497 13.6663 6.14636 13.6711 6.0522C13.6759 5.95805 13.6781 5.87775 13.6776 5.81132C13.6765 5.67845 13.6633 5.53239 13.6377 5.37314C13.6121 5.21388 13.5634 5.06366 13.4915 4.92247C13.397 4.73717 13.2868 4.57523 13.1606 4.43667C13.0345 4.29811 12.8958 4.19231 12.7447 4.11927C12.5936 4.04623 12.4317 4.01202 12.259 4.01666C12.0863 4.02129 11.9073 4.07082 11.722 4.16523C11.5368 4.25965 11.3915 4.37536 11.2863 4.51236C11.181 4.64935 11.1119 4.79991 11.0788 4.96404C11.0457 5.12817 11.0464 5.29869 11.081 5.47559C11.1156 5.6525 11.1778 5.82919 11.2677 6.00568L11.9635 5.78447L11.9298 5.71829C11.8197 5.5021 11.765 5.30486 11.7659 5.12658C11.7667 4.9483 11.8488 4.81757 12.012 4.73439C12.1708 4.65346 12.3226 4.66505 12.4673 4.76914C12.612 4.87323 12.7394 5.03338 12.8496 5.24957C12.9462 5.43929 12.9952 5.62272 12.9966 5.79988C12.9971 5.86631 12.9938 5.9444 12.9867 6.03415C12.9797 6.12389 12.971 6.21586 12.9606 6.31006C12.9502 6.40426 12.9393 6.49735 12.9278 6.58935C12.9164 6.68134 12.9065 6.7628 12.8981 6.83373C12.8642 7.02887 12.8246 7.28385 12.7794 7.59866C12.7342 7.91347 12.6767 8.29149 12.607 8.73272L12.934 9.37468L15.1442 8.2484Z" fill="#8090B3" stroke="#8090B3" stroke-width="0.53369"/>
</g>
<circle cx="23" cy="26" r="17.25" stroke="url(#paint3_linear_82_7420)" stroke-width="1.5"/>
<defs>
<linearGradient id="paint0_linear_82_7420" x1="20.7864" y1="9.15959" x2="19.3232" y2="2.16654" gradientUnits="userSpaceOnUse">
<stop stop-color="#93A7D2"/>
<stop offset="1" stop-color="#D2DAED"/>
</linearGradient>
<linearGradient id="paint1_linear_82_7420" x1="5.16916" y1="1.71329" x2="7.11372" y2="14.226" gradientUnits="userSpaceOnUse">
<stop stop-color="#D6DEEF"/>
<stop offset="1" stop-color="#C7D0E5"/>
</linearGradient>
<linearGradient id="paint2_linear_82_7420" x1="9.91368" y1="0.0700687" x2="9.91368" y2="13.4781" gradientUnits="userSpaceOnUse">
<stop stop-color="#D0D8EC"/>
<stop offset="1" stop-color="#B1BFDF"/>
</linearGradient>
<linearGradient id="paint3_linear_82_7420" x1="-4.16875" y1="20.2494" x2="20.3301" y2="51.6209" gradientUnits="userSpaceOnUse">
<stop stop-color="#BFCDF2"/>
<stop offset="1" stop-color="#738CC2"/>
</linearGradient>
<clipPath id="clip0_82_7420">
<rect width="20" height="16" fill="white" transform="translate(2.5)"/>
</clipPath>
</defs>
</svg>
