<svg width="46" height="46" viewBox="0 0 46 46" fill="none" xmlns="http://www.w3.org/2000/svg">
<g clip-path="url(#clip0_82_7433)">
<path fill-rule="evenodd" clip-rule="evenodd" d="M4.46097 8.23125C3.7038 8.2046 3.2722 9.08671 3.7579 9.66817L8.40771 15.2349C8.40771 15.2349 11.0887 11.8903 15 10C17.0746 8.99735 19.7459 8.78197 22.0458 8.78197C21.5186 5.91966 21.1122 3.5349 20.8544 1.97625C20.7297 1.22246 19.7647 0.970729 19.2896 1.56912L13.7414 8.55785L4.46097 8.23125Z" fill="url(#paint0_linear_82_7433)"/>
<path fill-rule="evenodd" clip-rule="evenodd" d="M11.1948 1.27066C10.6847 0.994464 10.0519 1.28139 9.9235 1.84706L7.21289 13.7909L8.40761 15.2349C8.40761 15.2349 11.2092 11.8713 15 10C17.1417 8.94273 19.5993 9.11231 22.0457 8.78195C21.9593 8.3194 21.7141 6.96662 21.7141 6.96662L11.1948 1.27066Z" fill="url(#paint1_linear_82_7433)"/>
<mask id="mask0_82_7433" style="mask-type:luminance" maskUnits="userSpaceOnUse" x="7" y="1" width="16" height="15">
<path fill-rule="evenodd" clip-rule="evenodd" d="M11.1948 1.27066C10.6847 0.994464 10.0519 1.28139 9.9235 1.84706L7.21289 13.7909L8.40761 15.2349C8.40761 15.2349 10.762 11.861 14.5 10C16.666 8.92162 19.5596 9.11766 22.0457 8.78195C21.9593 8.3194 21.7141 6.96662 21.7141 6.96662L11.1948 1.27066Z" fill="white"/>
</mask>
<g mask="url(#mask0_82_7433)">
<path fill-rule="evenodd" clip-rule="evenodd" d="M22.3857 11.0323L24.7571 7.4656L9.875 0L15.8761 13.4781L22.3857 11.0323Z" fill="url(#paint2_linear_82_7433)"/>
</g>
<path d="M14.0219 8.82881C14.2435 8.71589 14.4072 8.58598 14.5129 8.43905C14.6187 8.29212 14.6824 8.13515 14.704 7.96815C14.7257 7.80114 14.7112 7.62514 14.6608 7.44014C14.6103 7.25514 14.5386 7.07139 14.4456 6.8889C14.3105 6.62385 14.165 6.42158 14.0091 6.28209C13.8532 6.1426 13.6575 6.07811 13.4221 6.08862C13.5736 5.94571 13.6433 5.78434 13.631 5.6045C13.6188 5.42466 13.5407 5.19353 13.3968 4.9111C13.1798 4.48528 12.9345 4.2107 12.661 4.08737C12.3874 3.96405 12.0551 4.00201 11.664 4.20126C11.4902 4.28982 11.3531 4.39391 11.2526 4.51354C11.152 4.63316 11.0811 4.76238 11.0396 4.90118C10.9981 5.03999 10.985 5.18621 11.0004 5.33985C11.0157 5.4935 11.0523 5.64861 11.1102 5.8052L11.8155 5.62646C11.7247 5.44831 11.681 5.2818 11.6841 5.12693C11.6873 4.97206 11.7758 4.85034 11.9496 4.76178C12.0452 4.71308 12.1328 4.69169 12.2125 4.69763C12.2921 4.70357 12.3643 4.72974 12.429 4.77614C12.4937 4.82254 12.5531 4.88533 12.6071 4.96453C12.6611 5.04372 12.7136 5.13329 12.7645 5.23323C12.8132 5.32882 12.8516 5.42285 12.8795 5.51533C12.9075 5.60781 12.9202 5.69441 12.9175 5.77512C12.9148 5.85584 12.8936 5.92961 12.8538 5.99643C12.8139 6.06325 12.7505 6.1188 12.6636 6.16308C12.6245 6.18301 12.5886 6.19309 12.5559 6.19334L12.5102 6.20023L12.7958 6.76075L12.8046 6.74187L12.8184 6.72459C12.8335 6.70049 12.8649 6.67626 12.9127 6.65191C13.017 6.59877 13.1122 6.57624 13.1985 6.58431C13.2847 6.59238 13.3634 6.6234 13.4347 6.67739C13.506 6.73137 13.5725 6.80556 13.6343 6.89996C13.6961 6.99437 13.7558 7.09805 13.8133 7.21103C13.8709 7.324 13.9175 7.43433 13.9533 7.54202C13.989 7.6497 14.0066 7.7488 14.0062 7.83931C14.0058 7.92983 13.9846 8.01177 13.9427 8.08516C13.9007 8.15854 13.8319 8.21958 13.7363 8.26829C13.6407 8.31699 13.5509 8.33676 13.4669 8.32758C13.3828 8.31841 13.3041 8.28738 13.2306 8.2345C13.1571 8.18163 13.0873 8.1091 13.0212 8.01691C12.9551 7.92472 12.8932 7.82214 12.8357 7.70916L12.8191 7.67658L12.24 8.10299C12.333 8.28548 12.4383 8.44662 12.5561 8.5864C12.6738 8.72617 12.8071 8.83203 12.956 8.90396C13.1048 8.97589 13.2676 9.00792 13.4442 9.00003C13.6208 8.99215 13.8133 8.93508 14.0219 8.82881Z" fill="#CC7324" stroke="#CC7324" stroke-width="0.5"/>
</g>
<circle cx="23" cy="26" r="17.1613" stroke="url(#paint3_linear_82_7433)" stroke-width="1.67742"/>
<defs>
<linearGradient id="paint0_linear_82_7433" x1="5.96225" y1="1.62673" x2="7.52334" y2="10.2972" gradientUnits="userSpaceOnUse">
<stop stop-color="#FDCCA2"/>
<stop offset="1" stop-color="#FFA73C"/>
</linearGradient>
<linearGradient id="paint1_linear_82_7433" x1="5.25634" y1="1.81115" x2="7.17972" y2="14.1876" gradientUnits="userSpaceOnUse">
<stop stop-color="#FFCFA2"/>
<stop offset="1" stop-color="#FFBC79"/>
</linearGradient>
<linearGradient id="paint2_linear_82_7433" x1="8.27249" y1="0.725662" x2="9.5896" y2="14.2316" gradientUnits="userSpaceOnUse">
<stop stop-color="#FFC68E"/>
<stop offset="1" stop-color="#FFAB45"/>
</linearGradient>
<linearGradient id="paint3_linear_82_7433" x1="-1.89831" y1="16.3776" x2="14.0724" y2="50.455" gradientUnits="userSpaceOnUse">
<stop stop-color="#FFB06C"/>
<stop offset="1" stop-color="#FF8E00"/>
</linearGradient>
<clipPath id="clip0_82_7433">
<rect width="20" height="16" fill="white" transform="translate(2.5)"/>
</clipPath>
</defs>
</svg>
